<mxfile host="app.diagrams.net" agent="Mozilla/5.0 (Macintosh; Intel Mac OS X 10_15_7) AppleWebKit/605.1.15 (KHTML, like Gecko) Version/18.4 Safari/605.1.15" version="26.2.14">
  <diagram name="Page-1" id="df2nMv11HvNN4b4Q8ZTU">
    <mxGraphModel dx="888" dy="604" grid="1" gridSize="10" guides="1" tooltips="1" connect="1" arrows="1" fold="1" page="1" pageScale="1" pageWidth="850" pageHeight="1100" math="0" shadow="0">
      <root>
        <mxCell id="0" />
        <mxCell id="1" parent="0" />
        <mxCell id="skybCI3XVGw070paTQ06-1" value="Website" style="text;html=1;align=center;verticalAlign=middle;resizable=0;points=[];autosize=1;strokeColor=none;fillColor=none;" vertex="1" parent="1">
          <mxGeometry x="65" y="198" width="70" height="30" as="geometry" />
        </mxCell>
        <mxCell id="skybCI3XVGw070paTQ06-2" value="Blogs" style="text;html=1;align=center;verticalAlign=middle;resizable=0;points=[];autosize=1;strokeColor=none;fillColor=none;" vertex="1" parent="1">
          <mxGeometry x="155" y="198" width="50" height="30" as="geometry" />
        </mxCell>
        <mxCell id="skybCI3XVGw070paTQ06-3" value="Contents" style="text;html=1;align=center;verticalAlign=middle;resizable=0;points=[];autosize=1;strokeColor=none;fillColor=none;" vertex="1" parent="1">
          <mxGeometry x="230" y="198" width="70" height="30" as="geometry" />
        </mxCell>
        <mxCell id="skybCI3XVGw070paTQ06-4" value="eBooks" style="text;html=1;align=center;verticalAlign=middle;resizable=0;points=[];autosize=1;strokeColor=none;fillColor=none;" vertex="1" parent="1">
          <mxGeometry x="330" y="198" width="60" height="30" as="geometry" />
        </mxCell>
        <mxCell id="skybCI3XVGw070paTQ06-5" value="Podcasts" style="text;html=1;align=center;verticalAlign=middle;resizable=0;points=[];autosize=1;strokeColor=none;fillColor=none;" vertex="1" parent="1">
          <mxGeometry x="415" y="198" width="70" height="30" as="geometry" />
        </mxCell>
        <mxCell id="skybCI3XVGw070paTQ06-7" value="Resources" style="text;html=1;align=center;verticalAlign=middle;resizable=0;points=[];autosize=1;strokeColor=none;fillColor=none;" vertex="1" parent="1">
          <mxGeometry x="510" y="198" width="80" height="30" as="geometry" />
        </mxCell>
        <mxCell id="skybCI3XVGw070paTQ06-8" value="ESG" style="text;html=1;align=center;verticalAlign=middle;resizable=0;points=[];autosize=1;strokeColor=none;fillColor=none;" vertex="1" parent="1">
          <mxGeometry x="65" y="290" width="50" height="30" as="geometry" />
        </mxCell>
        <mxCell id="skybCI3XVGw070paTQ06-11" value="" style="endArrow=classic;html=1;rounded=0;entryX=0.079;entryY=1;entryDx=0;entryDy=0;entryPerimeter=0;" edge="1" parent="1">
          <mxGeometry width="50" height="50" relative="1" as="geometry">
            <mxPoint x="90" y="960" as="sourcePoint" />
            <mxPoint x="160.93499999999995" y="910" as="targetPoint" />
          </mxGeometry>
        </mxCell>
        <mxCell id="skybCI3XVGw070paTQ06-12" value="" style="endArrow=classic;html=1;rounded=0;entryX=0.219;entryY=1.01;entryDx=0;entryDy=0;entryPerimeter=0;" edge="1" parent="1">
          <mxGeometry width="50" height="50" relative="1" as="geometry">
            <mxPoint x="160" y="980" as="sourcePoint" />
            <mxPoint x="198.03500000000008" y="912.0999999999999" as="targetPoint" />
          </mxGeometry>
        </mxCell>
        <mxCell id="skybCI3XVGw070paTQ06-13" value="Mini Features" style="text;html=1;align=center;verticalAlign=middle;resizable=0;points=[];autosize=1;strokeColor=none;fillColor=none;" vertex="1" parent="1">
          <mxGeometry x="100" y="320" width="100" height="30" as="geometry" />
        </mxCell>
        <mxCell id="skybCI3XVGw070paTQ06-14" value="About Me" style="text;html=1;align=center;verticalAlign=middle;resizable=0;points=[];autosize=1;strokeColor=none;fillColor=none;" vertex="1" parent="1">
          <mxGeometry x="620" y="198" width="70" height="30" as="geometry" />
        </mxCell>
        <mxCell id="skybCI3XVGw070paTQ06-15" value="Contact" style="text;html=1;align=center;verticalAlign=middle;resizable=0;points=[];autosize=1;strokeColor=none;fillColor=none;" vertex="1" parent="1">
          <mxGeometry x="725" y="198" width="60" height="30" as="geometry" />
        </mxCell>
        <mxCell id="skybCI3XVGw070paTQ06-16" value="Step 1" style="text;html=1;align=center;verticalAlign=middle;resizable=0;points=[];autosize=1;strokeColor=none;fillColor=none;" vertex="1" parent="1">
          <mxGeometry x="40" y="148" width="60" height="30" as="geometry" />
        </mxCell>
        <mxCell id="skybCI3XVGw070paTQ06-17" value="Step 2" style="text;html=1;align=center;verticalAlign=middle;resizable=0;points=[];autosize=1;strokeColor=none;fillColor=none;" vertex="1" parent="1">
          <mxGeometry x="40" y="250" width="60" height="30" as="geometry" />
        </mxCell>
      </root>
    </mxGraphModel>
  </diagram>
</mxfile>
